<?xml version="1.0" encoding="utf-8"?>
<!-- Generator: Adobe Illustrator 16.0.0, SVG Export Plug-In . SVG Version: 6.00 Build 0)  -->
<!DOCTYPE svg PUBLIC "-//W3C//DTD SVG 1.1//EN" "http://www.w3.org/Graphics/SVG/1.1/DTD/svg11.dtd">
<svg version="1.1" xmlns="http://www.w3.org/2000/svg" xmlns:xlink="http://www.w3.org/1999/xlink" x="0px" y="0px" width="1024px"
	 height="1024px" viewBox="0 0 1024 1024" enable-background="new 0 0 1024 1024" xml:space="preserve">
<g id="Layer_1">
	<radialGradient id="SVGID_1_" cx="512" cy="512" r="512" gradientUnits="userSpaceOnUse">
		<stop  offset="0" style="stop-color:#3E5FA9"/>
		<stop  offset="0.2037" style="stop-color:#3E60A8"/>
		<stop  offset="0.4376" style="stop-color:#3C61A4"/>
		<stop  offset="0.6863" style="stop-color:#39629E"/>
		<stop  offset="0.9439" style="stop-color:#336194"/>
		<stop  offset="1" style="stop-color:#316191"/>
	</radialGradient>
	<rect fill="url(#SVGID_1_)" stroke="#000000" stroke-miterlimit="10" width="1024" height="1024"/>
</g>
<g id="Text">
	<rect x="201.515" y="338.098" fill="none" width="620.969" height="443.978"/>
	<text transform="matrix(1 0 0 1 207.5791 448.4971)"><tspan x="0" y="0" fill="#FFFFFF" font-family="'GothamRounded-Bold'" font-size="150">P   WER</tspan><tspan x="-4.5" y="180" fill="#FFFFFF" font-family="'GothamRounded-Bold'" font-size="150">BALLER</tspan></text>
</g>
<g id="Ball_1">
	<g>
		<g>
			<path d="M-429.861-455.861c3.224,0,3.224-5,0-5S-433.085-455.861-429.861-455.861L-429.861-455.861z"/>
		</g>
	</g>
	<g opacity="0.2">
		<g>
			<path d="M266.104,345.099c3.224,0,3.224-5,0-5S262.88,345.099,266.104,345.099L266.104,345.099z"/>
		</g>
	</g>
	<circle opacity="0.5" fill="#FFFFFF" stroke="#000000" stroke-miterlimit="10" cx="381.097" cy="399.096" r="55.497"/>
</g>
<g id="Ball_Text">
	<rect x="333.1" y="375.098" fill="none" width="95.995" height="67.497"/>
	
		<text transform="matrix(1 0 0 1 361.7173 419.2573)" opacity="0.6" fill="#FFFFFF" font-family="'GothamRounded-Bold'" font-size="60">$</text>
</g>
</svg>
